<?xml version="1.0" encoding="UTF-8" standalone="no"?>
<!-- Created with Inkscape (http://www.inkscape.org/) -->

<svg
   xmlns:dc="http://purl.org/dc/elements/1.1/"
   xmlns:cc="http://creativecommons.org/ns#"
   xmlns:rdf="http://www.w3.org/1999/02/22-rdf-syntax-ns#"
   xmlns:svg="http://www.w3.org/2000/svg"
   xmlns="http://www.w3.org/2000/svg"
   xmlns:sodipodi="http://sodipodi.sourceforge.net/DTD/sodipodi-0.dtd"
   xmlns:inkscape="http://www.inkscape.org/namespaces/inkscape"
   width="27.093334mm"
   height="27.093334mm"
   viewBox="0 0 96.000003 96.000003"
   id="svg2"
   version="1.1"
   inkscape:version="0.91 r13725"
   sodipodi:docname="eur_icon.svg">
  <defs
     id="defs4" />
  <sodipodi:namedview
     id="base"
     pagecolor="#ffffff"
     bordercolor="#666666"
     borderopacity="1.0"
     inkscape:pageopacity="0.0"
     inkscape:pageshadow="2"
     inkscape:zoom="3.959798"
     inkscape:cx="27.319943"
     inkscape:cy="75.335097"
     inkscape:document-units="px"
     inkscape:current-layer="layer1"
     showgrid="false"
     fit-margin-top="0"
     fit-margin-left="0"
     fit-margin-right="0"
     fit-margin-bottom="0"
     inkscape:window-width="1600"
     inkscape:window-height="1735"
     inkscape:window-x="0"
     inkscape:window-y="30"
     inkscape:window-maximized="0" />
  <metadata
     id="metadata7">
    <rdf:RDF>
      <cc:Work
         rdf:about="">
        <dc:format>image/svg+xml</dc:format>
        <dc:type
           rdf:resource="http://purl.org/dc/dcmitype/StillImage" />
        <dc:title></dc:title>
      </cc:Work>
    </rdf:RDF>
  </metadata>
  <g
     inkscape:label="Layer 1"
     inkscape:groupmode="layer"
     id="layer1"
     transform="translate(-166.15233,-445.24277)">
    <g
       id="g4155">
      <circle
         r="48"
         cy="493.24277"
         cx="214.15233"
         id="path4149"
         style="fill:#0b4bca;fill-opacity:1;stroke:none" />
      <path
         inkscape:connector-curvature="0"
         id="path4147"
         d="m 212.08628,516.38356 c -3.56807,-0.70026 -6.54851,-1.91367 -9.21547,-3.75186 -1.80231,-1.24223 -4.23496,-3.84036 -5.4953,-5.8691 -1.25478,-2.0198 -2.7066,-5.26277 -3.16659,-7.07327 l -0.34808,-1.37007 -3.83216,0 c -2.3778,0 -3.83216,-0.0703 -3.83216,-0.18528 0,-0.10191 0.48897,-0.95198 1.08661,-1.88906 l 1.08661,-1.70378 2.40945,-7.6e-4 2.40945,-5.6e-4 0,-1.79528 0,-1.79527 -3.59055,0 c -1.9748,0 -3.59055,-0.0432 -3.59055,-0.0961 0,-0.0528 0.55803,-0.93418 1.24006,-1.95856 l 1.24006,-1.86249 1.14986,-0.12019 c 0.63243,-0.0661 1.80893,-0.12018 2.61444,-0.12018 l 1.46456,0 0.70825,-1.84252 c 0.93586,-2.43463 1.61976,-3.79391 2.82868,-5.62205 3.3878,-5.1231 8.6219,-8.58592 14.91848,-9.86991 2.038,-0.41558 2.61319,-0.45522 5.48915,-0.37822 2.66367,0.0713 3.52693,0.16919 5.05219,0.57277 3.75807,0.99437 7.59971,2.98306 9.92971,5.14028 0.75051,0.69486 1.36456,1.33438 1.36456,1.42115 0,0.0868 -0.98617,1.77019 -2.19148,3.74093 l -2.19148,3.58316 -1.72978,-1.38897 c -2.21741,-1.78051 -4.02438,-2.80873 -6.42433,-3.65561 -1.90278,-0.67145 -1.94615,-0.67731 -4.94324,-0.66792 -2.8019,0.009 -3.13449,0.0479 -4.53544,0.53359 -3.5713,1.23809 -6.57999,3.72496 -8.65236,7.15172 l -0.71792,1.18711 13.22071,0.0945 c 7.27138,0.052 13.26594,0.13979 13.32124,0.19516 0.0553,0.0554 -0.38148,0.91412 -0.97062,1.90835 l -1.07116,1.80767 -3.78542,0.12265 c -2.08198,0.0675 -7.80352,0.12288 -12.71455,0.12315 l -8.92913,5.7e-4 0,1.79527 0,1.79528 12.09449,0 c 6.65197,0 12.09449,0.0504 12.09449,0.11206 0,0.0616 -0.44646,0.91017 -0.99213,1.88564 l -0.99213,1.77357 -10.62992,0.004 c -7.18597,0.003 -10.62992,0.0674 -10.62992,0.19938 0,0.1074 0.22476,0.63889 0.49947,1.18111 1.48668,2.93442 3.27152,4.9202 5.74089,6.38722 4.33207,2.57364 10.28791,2.85529 15.39751,0.72816 2.45148,-1.02056 4.94335,-2.67785 7.28238,-4.84338 l 1.127,-1.04341 0,5.08963 0,5.08963 -1.46457,1.04191 c -2.858,2.03321 -4.9447,3.10147 -7.79528,3.99067 -1.06061,0.33085 -1.83478,0.39037 -5.66929,0.43588 -3.03462,0.036 -4.82992,-0.0236 -5.66929,-0.18836 z"
         style="fill:#ffffff;fill-opacity:1" />
    </g>
  </g>
</svg>
