<?xml version="1.0" encoding="UTF-8" standalone="no"?>
<svg
   xmlns:dc="http://purl.org/dc/elements/1.1/"
   xmlns:cc="http://creativecommons.org/ns#"
   xmlns:rdf="http://www.w3.org/1999/02/22-rdf-syntax-ns#"
   xmlns:svg="http://www.w3.org/2000/svg"
   xmlns="http://www.w3.org/2000/svg"
   xmlns:sodipodi="http://sodipodi.sourceforge.net/DTD/sodipodi-0.dtd"
   xmlns:inkscape="http://www.inkscape.org/namespaces/inkscape"
   width="24"
   height="24.000004"
   viewBox="0 0 24 24.000004"
   version="1.1"
   id="s1"
   inkscape:version="0.91 r13725"
   sodipodi:docname="qrcode_48px.svg">
  <metadata
     id="metadata36">
    <rdf:RDF>
      <cc:Work
         rdf:about="">
        <dc:format>image/svg+xml</dc:format>
        <dc:type
           rdf:resource="http://purl.org/dc/dcmitype/StillImage" />
        <dc:title>QR coder</dc:title>
      </cc:Work>
    </rdf:RDF>
  </metadata>
  <defs
     id="defs34" />
  <sodipodi:namedview
     pagecolor="#ffffff"
     bordercolor="#666666"
     borderopacity="1"
     objecttolerance="10"
     gridtolerance="10"
     guidetolerance="10"
     inkscape:pageopacity="0"
     inkscape:pageshadow="2"
     inkscape:window-width="1600"
     inkscape:window-height="1735"
     id="namedview32"
     showgrid="false"
     fit-margin-top="0"
     fit-margin-left="0"
     fit-margin-right="0"
     fit-margin-bottom="0"
     inkscape:zoom="14.75"
     inkscape:cx="17.101695"
     inkscape:cy="3"
     inkscape:window-x="323"
     inkscape:window-y="30"
     inkscape:window-maximized="0"
     inkscape:current-layer="s1" />
  <title
     id="title3">QR coder</title>
  <desc
     id="desc5">Manually edited diagram of qr code</desc>
  <!--  <rect x="0" y="0" width="300" height="422" stroke="none" fill="#CFA"/>  -->
  <!-- vim:nowrap:sw=2:so=2:et:ai: -->
  <path
     style="fill:#000000"
     d="m 0,19.698929 0,-4.301072 4.2750003,0.02607 4.2750007,0.02607 0.02607,4.275 0.02608,4.275006 -4.3010747,0 -4.301074,0 0,-4.301074 z M 6.876688,19.724999 6.849998,17.15 4.2749983,17.12331 1.6999979,17.09662 l 0,2.601688 0,2.601688 2.6016884,0 2.6016877,0 -0.02669,-2.575 z m -3.4100209,0.808334 c -0.036667,-0.03667 -0.066667,-0.419166 -0.066667,-0.85 l 0,-0.783334 0.8500002,0 0.85,0 0,0.85 0,0.85 -0.783333,0 c -0.4308338,0 -0.8133338,-0.03 -0.8500005,-0.06667 z m 8.5333339,2.616666 0,-0.85 -0.85,0 -0.85,0 0,-2.6 0,-2.599999 0.85,0 0.85,0 0,-0.85 0,-0.85 -0.85,0 -0.85,0 0,-0.85 0,-0.85 -2.6,0 -2.6000007,0 0,-0.85 0,-0.85 -0.85,0 -0.8499999,0 0,0.85 0,0.85 -0.8500008,0 -0.85,0 0,-0.85 0,-0.85 L 0.8499997,12 0,12 0,11.15 0,10.3 l 0.8499997,0 0.8499999,0 0,0.85 0,0.85 0.85,0 0.8500008,0 0,-0.85 0,-0.85 1.7499999,0 1.7499997,0 0,0.85 0,0.85 2.550001,0 2.55,0 0,-0.85 0,-0.85 -0.85,0 -0.85,0 0,-1.7 0,-1.7 0.85,0 0.85,0 0,-0.9 0,-0.9 -0.85,0 -0.85,0 0,-2.55 0,-2.55 1.7,0 1.7,0 0,0.85 0,0.85 -0.85,0 -0.85,0 0,0.85 0,0.85 0.85,0 0.85,0 0,2.6 0,2.6 -0.85,0 -0.85,0 0,0.85 0,0.85 0.85,0 0.85,0 0,0.85 0,0.85 -0.85,0 -0.85,0 0,1.7 0,1.7 0.85,0 0.85,0 0,-0.85 0,-0.85 0.85,0 0.849999,0 0,0.85 0,0.85 2.6,0 2.6,0 0,-1.7 0,-1.7 0.85,0 0.85,0 0,-0.85 0,-0.85 0.85,0 0.85,0 0,1.7 0,1.7 -0.85,0 -0.85,0 0,1.7 0,1.7 0.85,0 0.85,0 0,0.9 0,0.899999 -0.85,0 -0.85,0 0,0.85 0,0.85 0.85,0 0.85,0 0,0.85 0,0.85 -0.85,0 -0.85,0 0,0.85 0,0.85 -0.85,0 -0.85,0 0,-0.85 0,-0.85 0.85,0 0.85,0 0,-0.85 0,-0.85 -1.7,0 -1.7,0 -0.0066,0.825 c -0.0036,0.45375 -8.66e-4,1.21875 0.006,1.7 l 0.01263,0.875 -3.456019,0 -3.456019,0 0,-0.85 z m 5.099999,-1.7 0,-0.85 0.902361,0 0.902362,0 -0.02736,-1.725 -0.02736,-1.724999 -1.725,-0.02736 -1.725,-0.02736 0,-0.847638 0,-0.84764 -0.85,0 -0.85,0 0,0.85 0,0.85 -0.85,0 -0.85,0 0,0.9 0,0.9 0.85,0 0.85,0 0,0.85 0,0.85 -0.85,0 -0.85,0 0,0.85 0,0.85 2.55,0 2.55,0 0,-0.85 z m -1.633333,-0.916663 c -0.03667,-0.03667 -0.06667,-0.417346 -0.06667,-0.845956 l 0,-0.77929 -0.824999,-0.02905 -0.825,-0.02905 0,-0.85 0,-0.85 0.825,-0.02905 0.824999,-0.02905 0,0.904044 0,0.904044 0.85,0 0.85,0 0,0.85 0,0.85 -0.783333,0 c -0.430834,0 -0.813334,-0.03 -0.85,-0.06667 z M 22.3,18.000003 l 0,-0.9 -0.85,0 -0.85,0 0,0.9 0,0.899999 0.85,0 0.85,0 0,-0.899999 z m -5.2,-5.15 0,-0.85 -0.85,0 -0.85,0 0,-0.85 0,-0.85 1.75,0 1.75,0 0,1.7 0,1.7 -0.9,0 -0.9,0 0,-0.85 z M 0,4.301078 0,4e-6 l 4.3010733,0 4.3010747,0 -0.02607,4.275 -0.02607,4.274999 -4.2750007,0.02607 -4.2750009,0.02607 0,-4.301073 z m 6.876688,-0.02607 0.02669,-2.575 -2.6016877,0 -2.601689,0 0,2.601689 0,2.601688 2.575001,-0.02669 2.5749997,-0.02669 0.02669,-2.574999 z m -3.4557322,0 0.029047,-0.825 0.8249995,-0.02905 0.825,-0.02905 0,0.854044 0,0.854044 -0.854045,0 -0.8540431,0 0.029047,-0.825 z M 15.466667,8.533337 c -0.03667,-0.03667 -0.06667,-1.971666 -0.06667,-4.299999 l 0,-4.233334 4.3,0 4.3,0 0,4.3 0,4.3 -4.233333,0 c -2.328334,0 -4.263334,-0.03 -4.3,-0.06667 z M 22.3,4.300004 l 0,-2.6 -2.6,0 -2.6,0 0,2.533334 c 0,1.393333 0.03,2.563333 0.06667,2.599999 0.03667,0.03667 1.206666,0.06667 2.6,0.06667 l 2.533333,0 0,-2.6 z m -3.4,-0.05405 0,-0.854044 0.825,0.02905 0.825,0.02905 0.02905,0.825 0.02905,0.825 -0.854044,0 -0.854044,0 0,-0.854044 z"
     id="path4196"
     inkscape:connector-curvature="0" />
</svg>
