<?xml version="1.0" encoding="UTF-8" standalone="no"?>
<!-- Created with Inkscape (http://www.inkscape.org/) -->

<svg
   xmlns:dc="http://purl.org/dc/elements/1.1/"
   xmlns:cc="http://creativecommons.org/ns#"
   xmlns:rdf="http://www.w3.org/1999/02/22-rdf-syntax-ns#"
   xmlns:svg="http://www.w3.org/2000/svg"
   xmlns="http://www.w3.org/2000/svg"
   xmlns:sodipodi="http://sodipodi.sourceforge.net/DTD/sodipodi-0.dtd"
   xmlns:inkscape="http://www.inkscape.org/namespaces/inkscape"
   width="72.095268mm"
   height="72.053101mm"
   viewBox="0 0 255.45567 255.30626"
   id="svg4313"
   version="1.1"
   inkscape:version="0.91 r13725"
   sodipodi:docname="escrow_icon.svg">
  <defs
     id="defs4315" />
  <sodipodi:namedview
     id="base"
     pagecolor="#ffffff"
     bordercolor="#666666"
     borderopacity="1.0"
     inkscape:pageopacity="0.0"
     inkscape:pageshadow="2"
     inkscape:zoom="2.8"
     inkscape:cx="143.00554"
     inkscape:cy="33.189338"
     inkscape:document-units="px"
     inkscape:current-layer="layer1"
     showgrid="false"
     inkscape:window-width="1600"
     inkscape:window-height="1735"
     inkscape:window-x="40"
     inkscape:window-y="30"
     inkscape:window-maximized="0"
     fit-margin-top="0"
     fit-margin-left="0"
     fit-margin-right="0"
     fit-margin-bottom="0" />
  <metadata
     id="metadata4318">
    <rdf:RDF>
      <cc:Work
         rdf:about="">
        <dc:format>image/svg+xml</dc:format>
        <dc:type
           rdf:resource="http://purl.org/dc/dcmitype/StillImage" />
        <dc:title></dc:title>
      </cc:Work>
    </rdf:RDF>
  </metadata>
  <g
     inkscape:label="Layer 1"
     inkscape:groupmode="layer"
     id="layer1"
     transform="translate(-170.73582,-242.25505)">
    <g
       id="g5027">
      <rect
         y="294.45505"
         x="241.37852"
         height="153.67151"
         width="115.81435"
         id="rect5025"
         style="fill:#ffffff;fill-opacity:1;stroke:none;stroke-width:0.14992326;stroke-miterlimit:4;stroke-dasharray:none;stroke-opacity:1" />
      <g
         transform="translate(-23.928571,-135.35714)"
         id="g5021">
        <path
           inkscape:connector-curvature="0"
           id="path5014"
           d="m 308.06787,632.54365 c -16.95162,-2.58015 -30.58281,-6.89368 -45.60197,-14.43052 -23.70169,-11.89387 -44.2257,-33.24323 -55.81525,-58.05979 -8.14283,-17.43616 -11.00457,-29.6836 -11.77392,-50.38896 -0.47514,-12.78754 -0.23921,-16.66124 1.59955,-26.26285 10.20359,-53.28075 48.25938,-92.37499 101.09159,-103.85013 11.90432,-2.58561 38.09568,-2.58561 50,0 51.49309,11.18428 89.4287,49.11989 100.61298,100.61298 2.58561,11.90432 2.58561,38.09568 0,50 -11.03423,50.80225 -48.1453,88.48398 -98.61298,100.12936 -8.30648,1.91672 -34.39618,3.33116 -41.5,2.24991 z m 65.26109,-100.62927 -0.26109,-41.25 -4,-0.5 -4,-0.5 -0.61302,-10.07956 c -0.75089,-12.34629 -2.75571,-18.6637 -8.32281,-26.22608 -14.82076,-20.13257 -43.67534,-22.4973 -62.08318,-5.08793 -9.10128,8.60761 -13.39955,20.3082 -13.46118,36.64357 l -0.0198,5.25 -3.3,0 c -1.815,0 -3.84,0.54 -4.5,1.2 -0.89296,0.89296 -1.2,11.34074 -1.2,40.83333 0,21.79834 0.3,39.93334 0.66667,40.3 0.36666,0.36667 23.32166,0.66667 51.01109,0.66667 l 50.34443,0 -0.2611,-41.25 z m -59.31269,18.97612 c -0.26886,-0.70064 0.19039,-3.51314 1.02056,-6.25 2.05214,-6.76544 1.93201,-8.21088 -0.96896,-11.65849 -3.67337,-4.36556 -3.50808,-10.9634 0.37187,-14.84334 5.13732,-5.13732 11.11894,-5.13732 16.25626,0 3.87995,3.87994 4.04524,10.47778 0.37187,14.84334 -2.90097,3.44761 -3.0211,4.89305 -0.96896,11.65849 0.83017,2.73686 1.28942,5.54936 1.02056,6.25 -0.34002,0.88609 -2.94325,1.27388 -8.5516,1.27388 -5.60835,0 -8.21158,-0.38779 -8.5516,-1.27388 z m -14.44282,-68.47612 c 0.003,-4.2625 0.44381,-9.325 0.97944,-11.25 2.33042,-8.37535 12.80737,-15.98046 22.01498,-15.98046 9.20761,0 19.68456,7.60511 22.01498,15.98046 0.53563,1.925 0.97638,6.9875 0.97944,11.25 l 0.006,7.75 -23,0 -23,0 0.006,-7.75 z"
           style="fill:#75c2d6" />
        <path
           inkscape:connector-curvature="0"
           id="path5012"
           d="m 251.40165,610.23325 c -25.97449,-17.4649 -45.87658,-46.57838 -52.3428,-76.56887 -0.94868,-4.4 -2.09736,-8.9 -2.55262,-10 -2.22212,-5.36915 -2.13938,-36.36031 0.0934,-34.98038 0.43859,0.27106 0.94836,0.0566 1.13284,-0.47659 0.43456,-1.256 94.82495,-43.38682 95.55924,-42.65253 0.30616,0.30615 -1.13177,2.42552 -3.19538,4.70969 -2.06362,2.28418 -5.1341,7.10646 -6.82329,10.71618 -2.67924,5.7254 -3.12784,7.93642 -3.51455,17.32205 l -0.44328,10.75893 -4.12367,0.30133 -4.12366,0.30132 -0.26112,41.93411 c -0.20476,32.88367 0.0111,42.1069 1,42.73469 0.69362,0.44032 22.38862,0.80747 48.21112,0.81589 28.12921,0.009 46.56917,0.37897 46,0.92248 -1.39903,1.33596 -103.2031,39.09283 -105.40623,39.09283 -1.03192,0 -5.17642,-2.21901 -9.20999,-4.93113 z M 300.91408,487.6242 c -0.33349,-0.86905 -0.39024,-4.59053 -0.12611,-8.26996 1.01364,-14.12058 8.93384,-22.18986 21.7799,-22.18986 9.05698,0 15.18196,3.65209 19.28686,11.5 1.59294,3.04547 2.10665,5.90907 2.15268,12 l 0.0605,8 -21.27373,0.26996 c -18.62805,0.23638 -21.34913,0.0735 -21.88006,-1.31014 z"
           style="fill:#62a3b3" />
      </g>
    </g>
  </g>
</svg>
