<?xml version="1.0" encoding="UTF-8" standalone="no"?>
<!-- Created with Inkscape (http://www.inkscape.org/) -->

<svg
   xmlns:dc="http://purl.org/dc/elements/1.1/"
   xmlns:cc="http://creativecommons.org/ns#"
   xmlns:rdf="http://www.w3.org/1999/02/22-rdf-syntax-ns#"
   xmlns:svg="http://www.w3.org/2000/svg"
   xmlns="http://www.w3.org/2000/svg"
   xmlns:sodipodi="http://sodipodi.sourceforge.net/DTD/sodipodi-0.dtd"
   xmlns:inkscape="http://www.inkscape.org/namespaces/inkscape"
   width="125.94973mm"
   height="124.96256mm"
   viewBox="0 0 446.27857 442.78073"
   id="svg2"
   version="1.1"
   inkscape:version="0.91 r13725"
   sodipodi:docname="sbux_icon.svg">
  <defs
     id="defs4" />
  <sodipodi:namedview
     id="base"
     pagecolor="#ffffff"
     bordercolor="#666666"
     borderopacity="1.0"
     inkscape:pageopacity="0.0"
     inkscape:pageshadow="2"
     inkscape:zoom="0.7"
     inkscape:cx="398.08159"
     inkscape:cy="-393.813"
     inkscape:document-units="px"
     inkscape:current-layer="layer1"
     showgrid="false"
     fit-margin-top="0"
     fit-margin-left="0"
     fit-margin-right="0"
     fit-margin-bottom="0"
     inkscape:window-width="3200"
     inkscape:window-height="1770"
     inkscape:window-x="0"
     inkscape:window-y="30"
     inkscape:window-maximized="1" />
  <metadata
     id="metadata7">
    <rdf:RDF>
      <cc:Work
         rdf:about="">
        <dc:format>image/svg+xml</dc:format>
        <dc:type
           rdf:resource="http://purl.org/dc/dcmitype/StillImage" />
        <dc:title></dc:title>
      </cc:Work>
    </rdf:RDF>
  </metadata>
  <g
     inkscape:label="Layer 1"
     inkscape:groupmode="layer"
     id="layer1"
     transform="translate(-110.85034,-86.629463)">
    <path
       style="fill:#00592d;fill-opacity:1"
       d="m 283.62664,527.70965 c -5.22354,-1.37086 -5.77643,-1.78317 -6.32708,-4.71837 -0.69506,-3.70499 0.98416,-14.03079 3.25168,-19.99513 0.85435,-2.24723 5.04381,-11.51088 9.30991,-20.58588 8.00115,-17.02035 9.98919,-22.97536 9.98919,-29.92182 0,-7.1539 -4.04223,-16.89072 -12.25107,-29.51007 -10.99971,-16.90972 -14.86348,-25.12608 -15.49083,-32.94147 -0.74386,-9.26693 1.47429,-14.81131 10.98251,-27.45139 10.43713,-13.87497 13.94184,-21.25392 14.51654,-30.56377 0.58886,-9.53926 -1.36816,-17.31853 -8.61223,-34.23419 -8.99144,-20.99592 -10.33119,-26.00377 -10.26706,-38.37729 0.0799,-15.42295 3.68014,-26.90211 12.51067,-39.89005 6.13988,-9.03052 2.37571,-7.8888 -6.98606,2.11897 -14.69454,15.7085 -20.73495,38.71348 -15.44771,58.83274 1.07511,4.09109 4.26589,12.80531 7.09062,19.36494 11.20989,26.03182 10.32452,38.60021 -3.96558,56.29368 -13.65648,16.90897 -17.54355,26.26963 -15.31687,36.88538 1.60015,7.62876 5.52902,15.73854 13.72715,28.33492 11.23404,17.26103 14.04833,25.3059 12.34507,35.28932 -0.54716,3.20708 -4.6014,12.9035 -10.35681,24.7701 -9.43548,19.45421 -12.47834,28.04024 -12.47834,35.2101 0,2.08444 -0.19926,3.7899 -0.44279,3.7899 -0.24353,0 -3.61853,-1.17714 -7.5,-2.61586 -5.77671,-2.14123 -7.05721,-3.01033 -7.05721,-4.7899 0,-5.72563 3.8087,-15.73981 12.74053,-33.49852 l 9.75947,-19.40427 0,-9.59573 c 0,-11.37173 -1.22456,-14.52201 -12.80359,-32.9383 -17.49158,-27.82012 -17.07249,-34.35193 3.93779,-61.37307 8.34968,-10.73844 11.52322,-18.30402 11.47595,-27.35814 -0.0483,-9.24471 -0.0951,-9.44221 -7.27868,-30.71985 -5.89507,-17.461 -6.00837,-18.00327 -6.06092,-29.00734 -0.083,-17.38573 4.55064,-30.80916 15.53199,-44.99513 5.29134,-6.83549 1.87745,-5.18885 -6.16547,2.97382 -6.02418,6.11388 -8.84897,9.9757 -12.00259,16.40896 -6.07635,12.39551 -7.44565,18.98932 -6.93193,33.38062 0.3962,11.09897 0.78671,13.08031 5.0324,25.53271 9.4612,27.74919 8.88253,33.21273 -5.52037,52.12133 -9.86237,12.94764 -13.53845,18.92306 -15.31219,24.88976 -3.08176,10.36672 -0.55151,20.74299 8.7759,35.98891 8.21437,13.42663 13.62892,24.53158 14.36971,29.47149 1.02267,6.81968 -0.71468,12.16703 -10.56851,32.52851 -5.51113,11.38796 -9.40107,20.80661 -10.11859,24.5 -0.64108,3.3 -1.27652,6.14196 -1.41207,6.31548 -0.62216,0.79641 -12.44883,-5.99471 -12.44883,-7.14837 0,-3.96741 3.77215,-12.60037 10.13547,-23.1961 3.95408,-6.58406 8.08253,-14.22101 9.17431,-16.97101 2.76821,-6.97259 2.76388,-16.6428 -0.0101,-22.5 l -2.13119,-4.5 -0.0843,5.71249 c -0.10977,7.4419 -3.08562,15.19467 -9.25055,24.09979 -11.73698,16.95381 -13.92398,20.51588 -15.78333,25.70692 -1.07972,3.01444 -2.44549,5.36406 -3.03503,5.22138 -0.58954,-0.14269 -4.20666,-2.53946 -8.03804,-5.32618 -7.85959,-5.71658 -7.83496,-5.39067 -0.99449,-13.15917 l 4.17795,-4.74478 -2.33038,-2.94989 c -1.28172,-1.62245 -3.0831,-2.9748 -4.00307,-3.00523 -0.91997,-0.0304 -3.78713,2.41967 -6.37147,5.44467 -2.58434,3.025 -5.12107,5.5 -5.63718,5.5 -1.55598,0 -11.8186,-10.18134 -11.8186,-11.72506 0,-1.95176 11.44691,-13.27494 13.42,-13.27494 0.869,0 1.58,-0.42428 1.58,-0.94284 0,-1.81058 -4.20772,-8.05716 -5.42733,-8.05716 -2.23496,0 -10.47997,6.09515 -13.63694,10.08115 -1.70708,2.15537 -3.47723,3.91885 -3.93366,3.91885 -0.45642,0 -3.12622,-2.88587 -5.93288,-6.41305 l -5.10303,-6.41306 6.07756,-5.83694 c 6.86076,-6.58915 11.26224,-9.33868 14.94068,-9.3332 2.04498,0.003 2.86725,0.85876 4.39529,4.57406 2.42786,5.90315 5.04321,6.97984 13.12031,5.40138 10.92733,-2.13547 22.93011,-8.14986 31.79129,-15.93009 l 3.65193,-3.20643 -3.89009,-7.73699 c -7.92787,-15.76776 -8.93945,-25.87227 -3.63891,-36.34859 1.54491,-3.05347 6.53335,-10.46351 11.08541,-16.46675 4.55206,-6.00324 9.56435,-13.36193 11.13842,-16.35266 2.58065,-4.90322 2.8484,-6.32228 2.72406,-14.43768 -0.11518,-7.51781 -0.82931,-11.22328 -4.33626,-22.5 -7.17241,-23.06311 -6.60832,-38.95878 2.02098,-56.95002 2.22912,-4.64751 5.51634,-10.49751 7.30492,-13 4.86486,-6.80667 5.26815,-7.802 2.0595,-5.08294 -22.39671,18.97931 -29.66552,46.94523 -20.41203,78.53296 4.2563,14.52929 4.9015,22.69997 2.25679,28.57959 -1.09359,2.43123 -6.3361,10.19761 -11.65003,17.25862 -11.68812,15.53088 -14.73858,21.25155 -15.51702,29.09971 l -0.58896,5.93791 -6.80155,4.63308 c -7.84375,5.343 -13.91981,7.75024 -22.69194,8.99017 -3.41979,0.48338 -6.4369,1.09797 -6.70467,1.36575 -0.26778,0.26778 0.22976,2.95199 1.10564,5.96493 1.96858,6.77167 1.97103,6.66813 -0.15748,6.68001 -3.36277,0.0188 -11.79544,4.80203 -17.41026,9.8756 -3.11314,2.81305 -6.14499,5.11463 -6.73745,5.11463 -1.00406,0 -2.17118,-1.64201 -7.96958,-11.21225 l -2.24917,-3.71225 3.4869,-1.45692 c 1.91779,-0.80131 6.44589,-3.89763 10.06242,-6.88072 6.28913,-5.18756 11.73147,-7.73786 16.51261,-7.73786 1.92148,0 2.13701,-0.39571 1.63398,-3 -0.3187,-1.65 -0.84021,-4.35 -1.15891,-6 -0.3187,-1.65 -1.1062,-3.04768 -1.75,-3.10596 -6.17884,-0.55934 -13.4411,2.1859 -21.11917,7.98334 -12.71049,9.59723 -13.23985,9.58646 -17.41272,-0.35456 -3.63171,-8.65179 -3.75836,-9.52085 -1.38865,-9.5284 4.03343,-0.0129 9.52245,-2.34037 16.90243,-7.16716 9.80053,-6.40994 14.93476,-8.77717 19.09757,-8.8053 1.7875,-0.0121 3.28842,-0.35946 3.33538,-0.77196 0.047,-0.4125 0.21816,-3.8449 0.38044,-7.62756 l 0.29507,-6.87757 -5.23637,0.54044 c -4.87796,0.50345 -16.02875,5.20921 -19.52452,8.23957 -4.01888,3.48382 -13.64572,7.47512 -18.02966,7.47512 l -4.58481,0 -1.67057,-6.75 c -2.73401,-11.04683 -2.94401,-10.35294 3.28504,-10.85472 8.29463,-0.66817 11.32928,-1.77053 23.24818,-8.44512 6.94326,-3.88822 13.43738,-6.71199 17.7803,-7.73122 l 6.84186,-1.60569 1.56483,-6.92929 c 0.86066,-3.81111 1.56483,-7.54909 1.56483,-8.30663 0,-3.21075 -12.01985,-0.42706 -23.5,5.4424 -20.39895,10.42938 -20.62248,10.5152 -28.59505,10.97821 l -7.59505,0.44109 -0.65495,-6.26621 c -1.1042,-10.56441 -1.40687,-9.97127 5.09505,-9.98469 8.28068,-0.0171 15.13397,-2.14161 27.68611,-8.58268 14.13906,-7.25539 20.46488,-9.40545 27.67234,-9.40545 l 5.79534,0 4.04811,-8.63842 c 2.22645,-4.75114 4.0481,-8.98391 4.0481,-9.40617 0,-0.42225 -2.14532,-1.06279 -4.76738,-1.42342 -7.92781,-1.09035 -18.17859,1.71312 -34.23262,9.36224 -17.37931,8.28055 -16.85146,8.08738 -25,9.14888 -9.95185,1.29641 -11,0.77922 -11,-5.42775 0,-13.70858 5.0588,-40.60831 11.04762,-58.74474 4.74537,-14.37079 15.25452,-36.38808 23.67474,-49.59994 22.32788,-35.03389 57.83712,-65.96518 95.03303,-82.7811 69.23542,-31.300675 149.08634,-26.090725 211.83378,13.82131 50.55614,32.15745 85.36281,80.79831 98.95492,138.28534 2.72471,11.52399 5.45591,30.96631 5.45591,38.83841 0,4.99405 -0.1706,5.36482 -2.69008,5.84645 -2.66333,0.50913 -13.25557,-0.65248 -16.91349,-1.85483 -1.04304,-0.34285 -8.42143,-3.73226 -16.39643,-7.53203 -16.05403,-7.64912 -26.30481,-10.45259 -34.23262,-9.36224 -2.62206,0.36063 -4.76738,1.00117 -4.76738,1.42342 0,0.42226 1.82165,4.65503 4.0481,9.40617 l 4.0481,8.63842 5.79535,0 c 7.20746,0 13.53328,2.15006 27.67234,9.40545 12.60673,6.46909 19.40407,8.56571 27.8254,8.58268 l 5.88929,0.0119 -0.6306,5.25 c -0.34683,2.8875 -0.63451,6.4875 -0.63929,8 -0.008,2.68527 -0.14624,2.75 -5.85214,2.75 -6.09591,0 -15.11191,-2.58818 -20.50764,-5.88702 -8.44237,-5.16149 -19.85521,-10.10135 -25.91914,-11.21868 -3.69563,-0.68094 -7.02054,-0.93686 -7.3887,-0.5687 -0.36815,0.36815 0.13462,4.18957 1.11728,8.49204 l 1.78665,7.82268 6.99245,1.64103 c 4.55101,1.06806 10.31706,3.57731 16.51439,7.18666 11.12469,6.47908 16.5732,8.50848 24.20191,9.01448 6.29051,0.41724 6.07179,-0.30238 3.30425,10.8718 l -1.69763,6.85429 -5.63809,-0.40782 c -4.30081,-0.31109 -7.03561,-1.27562 -11.53018,-4.06652 -11.75549,-7.29956 -19.61033,-10.90127 -24.98371,-11.45585 l -5.29349,-0.54634 0.3045,7.38398 0.30449,7.38397 4.4851,0.64522 c 5.18983,0.74661 7.16809,1.69795 19.00388,9.13892 5.66022,3.55849 10.3025,5.71602 13.25,6.15802 2.49542,0.37421 4.53713,1.11308 4.53713,1.64193 0,0.52885 -1.41239,4.32628 -3.13865,8.43873 -2.53321,6.03485 -3.55638,7.47718 -5.30422,7.47718 -2.18954,0 -7.33447,-3.11739 -15.55713,-9.4263 -4.22687,-3.24311 -8.16907,-4.74537 -15.67915,-5.97488 -3.45106,-0.565 -3.25061,-0.91905 -4.89794,8.65118 -0.62083,3.60672 -0.53617,3.75084 2.2158,3.77196 4.22972,0.0325 11.02609,3.44872 16.97955,8.53492 2.89369,2.47216 6.88956,5.17518 8.87973,6.00672 l 3.61847,1.5119 -2.26675,3.71225 c -1.24671,2.04174 -3.47774,5.64161 -4.95783,7.99972 l -2.69109,4.28748 -7.00417,-6.04329 c -6.83501,-5.89733 -13.92573,-9.96551 -17.44662,-10.0097 -2.12704,-0.0267 -2.14221,-0.41123 -0.26082,-6.61303 0.81904,-2.69991 1.49404,-5.21886 1.5,-5.59766 0.006,-0.3788 -2.12668,-0.96683 -4.73918,-1.30674 -8.65194,-1.12568 -17.66741,-4.53569 -24.75363,-9.3628 l -6.99637,-4.7659 -0.58896,-5.93791 c -0.77581,-7.82169 -3.74914,-13.40511 -15.36102,-28.84552 -13.04691,-17.34857 -13.94398,-19.24644 -13.26048,-28.0541 0.3004,-3.87107 1.9811,-11.9883 3.73488,-18.0383 3.76448,-12.98626 4.98426,-28.6597 3.01625,-38.75695 -2.90232,-14.89096 -11.61934,-29.66981 -23.45192,-39.76039 -3.20133,-2.73004 -2.80452,-1.74294 2.01699,5.01734 4.35446,6.10544 9.81696,17.22069 12.04033,24.5 1.35668,4.44181 1.83445,9.24624 1.83969,18.5 0.007,11.93971 -0.19115,13.14993 -4.41538,27 -3.67938,12.06366 -4.43441,15.9282 -4.49362,23 -0.0867,10.35774 1.26645,13.30357 13.83022,30.10793 4.6845,6.26564 9.74812,13.82406 11.2525,16.7965 5.21485,10.30377 4.17372,20.5161 -3.68505,36.14643 l -3.86252,7.68217 2.69404,2.44025 c 12.24539,11.09178 33.62629,19.89408 41.26684,16.98914 1.56334,-0.59438 3.34979,-2.79455 4.82306,-5.94007 l 2.34001,-4.99601 3.62648,1.00132 c 4.50324,1.2434 5.63744,2.03693 13.14026,9.19341 l 6.03124,5.75282 -5.10303,6.41306 c -2.80666,3.52715 -5.47646,6.41302 -5.93288,6.41302 -0.45643,0 -2.30943,-1.86809 -4.11778,-4.15132 -3.23756,-4.08776 -11.12094,-9.84868 -13.47715,-9.84868 -1.20147,0 -5.403,6.26549 -5.403,8.05716 0,0.51856 0.711,0.94284 1.58,0.94284 1.97309,0 13.42,11.32318 13.42,13.27494 0,1.54372 -10.26262,11.72506 -11.81867,11.72506 -0.51611,0 -3.05284,-2.475 -5.63718,-5.5 -2.58434,-3.025 -5.4515,-5.4751 -6.37147,-5.44467 -0.91998,0.0304 -2.72135,1.38278 -4.00307,3.00523 l -2.33038,2.94989 4.17795,4.74478 c 6.79618,7.7182 6.85038,7.28308 -1.69217,13.58425 -7.54227,5.56333 -9.32049,6.10681 -9.32989,2.8515 -0.008,-2.90598 -6.44176,-14.39689 -13.34897,-23.84313 -9.52168,-13.02178 -12.14615,-19.09553 -12.14615,-28.10955 0,-6.14274 -0.19729,-6.99292 -1.28034,-5.51738 -1.77166,2.4137 -4.22403,11.0061 -4.19857,14.71058 0.0365,5.30368 4.40255,15.63734 11.84703,28.03951 6.3606,10.59649 10.13188,19.23052 10.13188,23.1961 0,1.1365 -11.87456,7.98057 -12.40252,7.14837 -0.11008,-0.17352 -0.73577,-3.01548 -1.39043,-6.31548 -0.72758,-3.66761 -4.47898,-12.67837 -9.65035,-23.17988 -4.65303,-9.44893 -9.2086,-19.75477 -10.12349,-22.90187 -2.94211,-10.12052 -0.79992,-16.92351 11.86965,-37.69459 9.06159,-14.85601 11.07848,-20.32597 11.1441,-30.22366 0.0464,-7.00668 -0.32776,-8.75037 -3.01386,-14.0433 -1.68679,-3.32382 -6.74528,-10.86837 -11.24109,-16.76567 -11.89916,-15.60852 -13.62719,-19.34324 -13.50651,-29.19103 0.0837,-6.82665 0.84237,-10.20003 5.17297,-23 3.1879,-9.42248 5.40274,-17.97468 5.95653,-23 2.32622,-21.10917 -4.13007,-39.70675 -19.06204,-54.90896 -4.2726,-4.34993 -7.98943,-7.6879 -8.25961,-7.41772 -0.27018,0.27018 2.1412,4.50421 5.35864,9.40896 9.56951,14.58801 12.40973,23.76396 12.39556,40.04645 -0.01,11.05403 -0.0514,11.24867 -6.23199,29 -5.5934,16.06497 -6.27467,18.88528 -6.74034,27.90368 -0.4638,8.98218 -0.2726,10.60292 1.82647,15.48234 1.28948,2.99747 5.77286,10.03245 9.96307,15.6333 10.61953,14.1946 13.61529,19.11791 14.99684,24.6462 2.36048,9.44545 -0.31689,17.71082 -11.40407,35.20575 -3.83411,6.05 -8.36305,13.925 -10.06432,17.5 -2.79286,5.86886 -3.09321,7.43417 -3.09321,16.12086 l 0,9.62087 9.7536,19.37913 c 8.9311,17.74496 12.7464,27.76433 12.7464,33.47338 0,1.77957 -1.2805,2.64867 -7.05721,4.7899 -3.88147,1.43872 -7.25647,2.61586 -7.5,2.61586 -0.24353,0 -0.44279,-1.70546 -0.44279,-3.7899 0,-7.1309 -3.04131,-15.7202 -12.46722,-35.2101 -15.0183,-31.05326 -14.89481,-33.37926 3.30835,-62.30987 12.67897,-20.15092 14.98948,-28.40486 11.29256,-40.34091 -1.47943,-4.77653 -3.76944,-8.96754 -7.56738,-13.84922 -14.29944,-18.37978 -18.5884,-26.688 -18.54895,-35.9315 0.0308,-7.22613 2.71077,-17.05702 7.89691,-28.96855 2.78842,-6.40446 5.97343,-15.09421 7.0778,-19.31055 5.33792,-20.3796 -0.63068,-43.27787 -15.39454,-59.06048 -9.62293,-10.28695 -13.25244,-11.12829 -6.78752,-1.57339 7.79792,11.52503 10.73816,19.50807 12.07896,32.7956 1.46256,14.49424 -0.60217,23.88943 -9.6804,44.04887 -7.30476,16.22123 -8.58425,20.95486 -8.6495,32 -0.0543,9.18322 0.19419,10.5309 3.04167,16.5 1.70541,3.575 6.35868,10.775 10.3406,16 3.98192,5.225 8.15887,11.28676 9.28211,13.47059 2.85241,5.54567 3.42448,14.78878 1.35574,21.90501 -1.66441,5.72537 -3.45487,8.92929 -15.96591,28.57017 -7.01333,11.01011 -10.61328,20.3563 -10.61328,27.55423 0,6.15877 3.42565,16.38724 9.63513,28.76906 10.05515,20.05013 14.34838,33.67483 12.95372,41.10903 -0.63113,3.36421 -0.8745,3.52657 -7.56788,5.04895 -3.80368,0.86513 -7.27695,1.57293 -7.71838,1.57289 -0.44142,-3e-5 -0.85015,-3.71253 -0.90829,-8.25 -0.13319,-10.39577 -2.25057,-18.33973 -8.59589,-32.24993 -13.33007,-29.22217 -12.29614,-26.23742 -12.29732,-35.5 -10e-4,-10.42276 2.10177,-15.36153 14.47846,-34 11.71695,-17.64496 13.42663,-21.64061 13.47843,-31.5 0.0495,-9.42809 -1.69879,-13.72944 -9.86914,-24.28088 -7.72083,-9.97092 -11.22501,-16.23427 -12.65325,-22.61633 -1.68189,-7.51548 -3.25186,-8.35336 -11.304,-6.03288 -8.0836,2.32956 -18.51797,2.35096 -26.74108,0.0549 -8.06845,-2.25292 -10.33447,-1.43496 -11.35316,4.09813 -1.38288,7.51119 -5.62729,15.28586 -14.11389,25.85305 -11.04881,13.75756 -12.14345,26.38309 -3.59149,41.42405 1.40723,2.475 5.67567,9.1794 9.48542,14.89866 9.31007,13.97643 12.79721,21.65992 13.4347,29.60171 0.63777,7.94527 -0.72962,12.45913 -9.23929,30.49963 -9.72844,20.62428 -13.44127,34.13909 -12.01913,43.75 0.58795,3.97339 0.47845,4.24354 -1.6824,4.15075 -1.2712,-0.0546 -4.88694,-0.77521 -8.03497,-1.60137 z m 64.17525,-207.35424 c 14.75887,-7.8664 28.00795,-28.99685 29.72752,-47.41129 1.00877,-10.80268 -2.11002,-15.16104 -8.55008,-11.94831 -3.16663,1.57972 -4.28326,1.57134 -15.62899,-0.1173 -3.8247,-0.56925 -4.08765,-0.43117 -6,3.15071 -2.54917,4.77467 -4.19814,5.2786 -5.6031,1.71233 -1.57055,-3.98662 -1.40701,-18.49642 0.24727,-21.93824 0.74571,-1.55149 3.35059,-4.15961 5.78862,-5.79582 3.80172,-2.55142 5.59905,-3.03615 12.62491,-3.40492 4.94068,-0.25932 9.6575,0.0537 11.88421,0.78853 2.03065,0.67017 3.92454,0.98605 4.20865,0.70194 1.20388,-1.20388 -3.89208,-10.0159 -8.3375,-14.41733 -17.61571,-17.44142 -48.67152,-17.90558 -67.86109,-1.01425 -4.10109,3.60992 -10.377,14.15712 -9.15252,15.38159 0.3116,0.3116 2.22799,0.0182 4.25864,-0.65195 2.22671,-0.73488 6.94353,-1.04785 11.88421,-0.78853 7.02094,0.36851 8.8236,0.85409 12.60917,3.39651 6.13079,4.11748 7.07547,6.3727 6.73501,16.07843 -0.15756,4.49198 -0.60994,8.49043 -1.00527,8.88545 -0.39534,0.39503 -1.92054,-0.0692 -3.38933,-1.03158 -2.68662,-1.76034 -3.02315,-1.75808 -14.64028,0.0983 -2.41775,0.38635 -5.20629,0.0157 -7.85521,-1.04423 -6.96154,-2.78546 -9.9131,-0.17493 -9.88161,8.73988 0.0642,18.18915 14.82366,42.84352 30.48522,50.92303 6.24758,3.223 8.55316,3.73534 15.12517,3.36106 4.558,-0.25959 7.71181,-1.19451 12.32638,-3.65405 z m -17.95155,-14.11814 c -2.99044,-0.83041 -13,-9.1535 -13,-10.80968 0,-0.30682 7.65,-0.55786 17,-0.55786 9.35,0 17,0.25104 17,0.55786 0,1.34913 -9.74041,9.83608 -12,10.45576 -4.71392,1.29277 -5.50676,1.32395 -9,0.35392 z m 1,-20.53585 c -7.39045,-2.71453 -8.2419,-3.29475 -7.01115,-4.77771 0.87586,-1.05535 3.10255,-1.45833 7.6788,-1.38968 3.54487,0.0532 6.68309,-0.14116 6.9738,-0.43188 0.90224,-0.90224 6.35855,1.43466 6.35855,2.72332 0,0.67076 -2.40205,1.97674 -5.33789,2.90218 -5.64122,1.77823 -6.27725,1.84974 -8.66211,0.97377 z m -180.74546,-6.64184 c 8.385,-3.55837 17.04546,-6.95766 19.24546,-7.55396 5.05002,-1.3688 16.92365,-1.41237 21.5066,-0.0789 2.9794,0.86688 3.7141,0.73741 4.9934,-0.87995 0.825,-1.04302 4.28121,-5.43792 7.68046,-9.76644 6.82332,-8.68864 15.16637,-17.05822 25.81954,-25.90164 3.85,-3.19596 7.13028,-6.12462 7.2895,-6.50813 0.55238,-1.33045 -12.73875,-3.96029 -20.01512,-3.96029 -8.22651,0 -19.28569,2.70519 -26.96245,6.5953 -2.75594,1.39654 -5.11467,2.39641 -5.24164,2.22193 -0.12696,-0.17448 -1.01508,-3.29154 -1.9736,-6.9268 -2.62779,-9.96612 -9.84547,-20.97581 -18.44816,-28.14043 -5.24602,-4.36906 -6.14737,-3.78339 -6.15608,4 -0.0277,24.77283 -11.44116,49.94907 -34.4183,75.92135 l -6.92585,7.82865 4.42585,0.50431 c 7.46546,0.85067 13.32419,-0.62604 29.18039,-7.355 z m 400.13397,6.98205 c 0.48867,-0.12303 -1.90163,-3.35292 -5.3118,-7.17753 -23.23929,-26.06361 -35.04137,-51.87731 -35.06916,-76.70383 -0.009,-7.78202 -0.89755,-8.35924 -6.18082,-4.01381 -5.05137,4.15468 -8.53254,8.20343 -12.26422,14.26381 -3.28181,5.32979 -7.56251,16.34975 -7.56251,19.46845 0,1.97926 0.22139,2.02425 -7.11694,-1.44623 -9.44006,-4.46444 -19.48546,-6.39387 -29.77018,-5.71797 -8.49837,0.5585 -16.42298,2.41215 -15.88774,3.71631 0.15117,0.36835 4.33814,4.06702 9.30437,8.21926 10.79167,9.02285 20.01691,18.64125 27.38936,28.55661 3.97626,5.34776 5.83979,7.11005 7,6.6197 3.09247,-1.30698 16.82917,-1.63589 22.00079,-0.52678 2.89007,0.61981 11.62795,3.8645 19.41751,7.21041 17.5515,7.53906 26.31907,9.4783 34.05134,7.5316 z M 301.85483,249.16339 c 3.53028,-0.82095 5.63898,-0.71493 9.75,0.49018 2.88503,0.84572 5.24551,1.17376 5.24551,0.72897 0,-4.153 -8.57198,-8.94641 -16.02749,-8.9625 -7.11281,-0.0154 -10.33763,3.26922 -8.3346,8.48901 0.44822,1.16804 1.26595,1.46008 2.75,0.9821 1.16165,-0.37414 4.13911,-1.15163 6.61658,-1.72776 z m 73.38852,0.66509 c 1.97552,-5.14812 -1.29494,-8.41821 -8.41917,-8.41821 -5.93298,0 -14.97384,4.31744 -14.97384,7.15072 0,1.79955 0.415,1.90095 4.75,1.16055 6.33533,-1.08204 13.14505,-0.81622 14.52837,0.5671 1.59167,1.59167 3.40511,1.38886 4.11464,-0.46016 z M 267.63891,211.99821 c 10.51074,-4.50643 25.15545,-9.00427 36.71143,-11.2752 6.82551,-1.34131 13.95299,-1.76863 29.5,-1.76863 15.54701,0 22.67449,0.42732 29.5,1.76863 11.90908,2.34032 26.76714,6.95247 37.93406,11.77526 10.50639,4.53752 9.32972,5.0762 15.49163,-7.09205 3.93882,-7.77819 9.08534,-16.09646 15.20431,-24.57457 5.6057,-7.76695 5.58261,-7.63629 1.21843,-6.89711 -13.64658,2.31137 -25.99431,6.85524 -33.16411,12.20411 -1.82362,1.36048 -3.51703,2.27224 -3.76313,2.02615 -1.19045,-1.19046 9.30021,-22.78881 16.10748,-33.16233 l 1.90814,-2.90781 -5.4684,0.70826 c -13.35939,1.73029 -27.82701,7.79601 -39.29139,16.47336 l -6.5402,4.95027 -4.13731,-10.65814 c -6.23816,-16.07018 -6.64153,-14.2549 5.46785,-24.60715 5.75737,-4.92195 10.3018,-9.11517 10.09871,-9.31825 -0.20308,-0.20309 -6.78613,-0.90103 -14.62899,-1.55099 l -14.25974,-1.18175 -5.58867,-13.23547 c -3.07377,-7.27951 -5.85508,-13.24201 -6.18068,-13.25 -0.32561,-0.008 -1.86973,3.24797 -3.43138,7.23547 -1.56165,3.9875 -4.09125,10.01624 -5.62133,13.39719 l -2.78196,6.1472 -12.78666,0.73282 c -7.03266,0.40305 -13.57446,1.02185 -14.53732,1.37512 -1.3797,0.5062 0.47448,2.54467 8.7503,9.61999 12.15559,10.39228 11.74903,8.53969 5.44053,24.79145 l -4.19762,10.81376 -2.62127,-2.41654 c -9.89792,-9.12486 -28.38708,-17.41408 -43.08969,-19.31834 l -5.4684,-0.70826 1.90981,2.90781 c 5.98631,9.1145 17.20811,32.06002 16.18146,33.08667 -0.23099,0.23099 -2.14521,-0.75079 -4.25383,-2.18174 -7.14976,-4.85196 -16.57868,-8.69314 -26.12724,-10.64378 -5.23384,-1.0692 -9.69728,-1.7628 -9.91875,-1.54132 -0.22148,0.22148 1.53488,3.05437 3.90302,6.29533 5.88675,8.05639 11.83418,17.65063 15.74903,25.4059 4.44976,8.81492 6.0926,11.17269 7.39123,10.60778 0.60614,-0.26367 4.83194,-2.07857 9.39065,-4.0331 z m 43.21143,-29.72173 c 0,-0.45931 5.15832,-4.70963 11.46294,-9.44515 l 11.46293,-8.61003 3.28707,2.32076 c 7.76466,5.48208 19.78706,15.07731 19.78706,15.7923 0,0.42747 -2.3625,0.39362 -5.25,-0.0752 -6.83104,-1.10915 -28.7792,-1.11581 -35.5,-0.0108 -2.8875,0.47476 -5.25,0.48741 -5.25,0.0281 z M 487.51915,524.2448 c -1.53169,-0.85717 -1.75772,-2.24527 -1.57424,-9.6677 l 0.21423,-8.66683 -3.06929,-0.30701 c -1.68811,-0.16886 -3.31846,-0.95636 -3.62301,-1.75 -0.45838,-1.1945 1.07141,-1.44299 8.8835,-1.44299 7.81209,0 9.34188,0.24849 8.8835,1.44299 -0.30455,0.79364 -1.93245,1.58114 -3.61756,1.75 l -3.06385,0.30701 0.20706,9.15507 c 0.11388,5.03529 -0.1662,9.38576 -0.6224,9.66771 -0.45621,0.28195 -1.63428,0.0622 -2.61794,-0.48825 z m 15.58119,0.50319 c -0.89286,-0.36028 -1.25,-3.62339 -1.25,-11.42105 l 0,-10.91667 3.39037,0 c 3.33441,0 3.43727,0.13202 6.23284,8 1.56336,4.4 3.10981,8 3.43655,8 0.32675,0 1.84728,-3.6 3.37896,-8 2.74947,-7.89827 2.82839,-8 6.20583,-8 l 3.42095,0 -0.28275,11.25 c -0.23142,9.20767 -0.55506,11.25 -1.78275,11.25 -1.18404,0 -1.60858,-1.89578 -2.01549,-9 -0.56964,-9.9452 -0.56262,-9.94841 -4.9973,2.28072 -1.25267,3.45439 -2.73052,6.56064 -3.2841,6.90277 -1.4975,0.9255 -3.37939,-2.18597 -5.79397,-9.57963 -1.18616,-3.63212 -2.55097,-7.03136 -3.0329,-7.55386 -0.507,-0.54968 -0.87624,2.92682 -0.87624,8.25 0,5.06 -0.3375,9.16447 -0.75,9.12105 -0.4125,-0.0434 -1.3125,-0.30592 -2,-0.58333 z"
       id="path4162"
       inkscape:connector-curvature="0" />
  </g>
</svg>
